<svg xmlns="http://www.w3.org/2000/svg" viewBox="0 0 64 64" fill="none">
  <defs>
    <linearGradient id="bg" x1="10" y1="8" x2="54" y2="58" gradientUnits="userSpaceOnUse">
      <stop offset="0" stop-color="#103631"/>
      <stop offset="1" stop-color="#081917"/>
    </linearGradient>
    <linearGradient id="shield" x1="19" y1="14" x2="44" y2="51" gradientUnits="userSpaceOnUse">
      <stop offset="0" stop-color="#43D998"/>
      <stop offset="0.58" stop-color="#1E9F74"/>
      <stop offset="1" stop-color="#2F7DF4"/>
    </linearGradient>
    <radialGradient id="glow" cx="0" cy="0" r="1" gradientUnits="userSpaceOnUse" gradientTransform="translate(21 16) rotate(44.5) scale(34.6712)">
      <stop stop-color="#8FF3C8" stop-opacity=".55"/>
      <stop offset="1" stop-color="#8FF3C8" stop-opacity="0"/>
    </radialGradient>
  </defs>
  <rect x="4" y="4" width="56" height="56" rx="18" fill="url(#bg)"/>
  <rect x="4" y="4" width="56" height="56" rx="18" fill="url(#glow)"/>
  <path d="M32 12 46 18.2V29c0 9.1-5.8 17.3-14 20-8.2-2.7-14-10.9-14-20V18.2L32 12Z" fill="url(#shield)"/>
  <path d="M27.5 30.5v-3.3a4.5 4.5 0 0 1 9 0v3.3" stroke="#F5FFFB" stroke-width="3" stroke-linecap="round"/>
  <rect x="23.5" y="30" width="17" height="14" rx="4" fill="#F5FFFB"/>
  <path d="M32 35.2a2.3 2.3 0 0 1 1.1 4.4v2.2h-2.2v-2.2a2.3 2.3 0 0 1 1.1-4.4Z" fill="#0E3A34"/>
</svg>
